<svg xmlns="http://www.w3.org/2000/svg" xmlns:xlink="http://www.w3.org/1999/xlink" width="500" zoomAndPan="magnify" viewBox="0 0 375 374.999991" height="500" preserveAspectRatio="xMidYMid meet" version="1.2"><defs><clipPath id="92830bee2f"><path d="M 154 14.144531 L 216 14.144531 L 216 112 L 154 112 Z M 154 14.144531 "/></clipPath></defs><g id="74c3091d6d"><rect x="0" width="375" y="0" height="374.999991" style="fill:#ffffff;fill-opacity:1;stroke:none;"/><rect x="0" width="375" y="0" height="374.999991" style="fill:#bcd4de;fill-opacity:1;stroke:none;"/><g clip-rule="nonzero" clip-path="url(#92830bee2f)"><path style=" stroke:none;fill-rule:nonzero;fill:#3f4c50;fill-opacity:1;" d="M 178.878906 75.808594 L 178.878906 111.269531 C 184.277344 110.496094 188.902344 110.496094 190.441406 110.496094 L 190.441406 75.808594 C 205.089844 72.726562 215.878906 60.394531 215.878906 44.976562 C 215.878906 28.019531 202.003906 14.144531 185.046875 14.144531 C 168.089844 14.144531 154.214844 28.019531 154.214844 44.976562 C 153.441406 60.394531 164.234375 73.496094 178.878906 75.808594 Z M 178.878906 75.808594 "/></g><path style=" stroke:none;fill-rule:nonzero;fill:#3f4c50;fill-opacity:1;" d="M 47.839844 239.226562 L 64.027344 246.933594 C 63.253906 249.246094 63.253906 251.558594 63.253906 254.644531 C 63.253906 272.371094 78.671875 285.476562 94.859375 283.164062 L 107.191406 319.394531 C 102.566406 322.476562 98.714844 326.332031 96.402344 331.726562 C 90.234375 345.601562 96.402344 361.789062 110.277344 367.957031 C 123.378906 374.121094 140.339844 367.957031 146.503906 354.082031 C 149.589844 347.144531 149.589844 340.207031 147.277344 333.269531 C 142.652344 320.933594 129.546875 313.996094 118.753906 315.539062 L 106.421875 279.308594 C 114.902344 274.683594 120.296875 265.433594 120.296875 254.644531 C 120.296875 249.246094 118.753906 244.621094 116.441406 239.996094 L 162.691406 196.832031 C 159.609375 194.519531 156.527344 192.207031 153.441406 189.121094 L 107.964844 231.519531 C 103.339844 228.433594 97.941406 226.121094 91.777344 226.121094 C 82.527344 226.121094 74.816406 229.976562 69.421875 236.914062 L 52.464844 229.207031 C 55.546875 213.789062 43.214844 199.914062 28.566406 199.914062 C 25.484375 199.914062 22.402344 200.683594 19.316406 201.457031 C 6.984375 206.851562 0.816406 220.726562 5.441406 233.832031 C 13.152344 250.789062 36.277344 253.871094 47.839844 239.226562 Z M 47.839844 239.226562 "/><path style=" stroke:none;fill-rule:nonzero;fill:#3f4c50;fill-opacity:1;" d="M 57.089844 68.101562 C 60.941406 69.644531 65.566406 69.644531 69.421875 68.871094 L 74.816406 81.976562 C 64.027344 88.144531 57.859375 99.707031 57.859375 112.039062 C 57.859375 144.414062 99.484375 159.832031 120.296875 133.621094 L 142.652344 145.957031 C 143.421875 142.101562 144.964844 138.246094 146.503906 135.164062 L 125.691406 123.601562 C 134.941406 98.164062 112.589844 71.957031 85.609375 77.351562 L 80.214844 64.246094 C 95.628906 53.457031 92.546875 28.789062 74.046875 21.082031 C 60.941406 17.226562 47.066406 23.394531 42.441406 36.496094 C 37.816406 49.601562 43.984375 63.476562 57.089844 68.101562 Z M 57.089844 68.101562 "/><path style=" stroke:none;fill-rule:nonzero;fill:#3f4c50;fill-opacity:1;" d="M 203.546875 201.457031 L 211.253906 219.183594 C 198.152344 226.894531 192.753906 243.082031 199.691406 256.957031 C 203.546875 265.433594 211.253906 270.832031 219.734375 272.371094 L 214.339844 314.769531 C 191.984375 317.082031 180.421875 344.058594 195.066406 361.019531 C 205.089844 372.582031 222.816406 374.894531 235.152344 364.101562 C 247.484375 354.082031 248.253906 335.582031 238.234375 324.019531 C 235.152344 320.164062 230.527344 317.082031 225.902344 315.539062 L 231.296875 271.601562 C 238.234375 270.058594 243.628906 266.976562 248.253906 261.582031 L 283.714844 281.621094 C 282.171875 286.246094 282.171875 290.871094 283.714844 295.496094 C 288.339844 308.601562 301.441406 315.539062 314.546875 311.683594 C 327.652344 307.832031 334.589844 293.957031 330.734375 280.851562 C 328.421875 274.683594 324.566406 269.289062 319.171875 266.207031 C 308.378906 260.808594 296.046875 263.894531 289.878906 270.832031 L 254.421875 250.789062 C 260.589844 230.746094 244.402344 210.707031 222.816406 213.019531 L 214.339844 193.746094 C 211.253906 198.371094 207.402344 199.914062 203.546875 201.457031 Z M 203.546875 201.457031 "/><path style=" stroke:none;fill-rule:nonzero;fill:#3f4c50;fill-opacity:1;" d="M 232.839844 146.726562 L 260.589844 132.082031 C 265.984375 139.019531 274.464844 142.871094 284.484375 142.871094 C 286.027344 142.871094 288.339844 142.871094 289.878906 142.101562 L 301.441406 176.019531 C 282.171875 186.808594 284.484375 215.332031 304.527344 224.582031 C 319.171875 230.746094 334.589844 224.582031 340.753906 210.707031 C 343.839844 203.769531 343.839844 196.832031 341.527344 189.894531 C 336.902344 177.558594 323.796875 170.621094 313.003906 172.164062 L 301.441406 137.476562 C 315.316406 128.996094 320.714844 110.496094 312.234375 95.082031 L 333.816406 75.039062 C 337.671875 78.121094 343.066406 79.664062 348.464844 79.664062 C 363.109375 79.664062 374.671875 68.101562 375.441406 53.457031 C 375.441406 38.808594 363.878906 26.476562 348.464844 26.476562 C 333.816406 26.476562 322.253906 38.039062 321.484375 52.683594 C 321.484375 58.082031 323.027344 62.707031 325.339844 66.558594 L 304.527344 85.832031 C 279.859375 67.332031 245.941406 91.996094 255.964844 120.519531 L 229.753906 134.394531 C 230.527344 139.019531 232.066406 142.101562 232.839844 146.726562 Z M 232.839844 146.726562 "/><path style=" stroke:none;fill-rule:nonzero;fill:#3f4c50;fill-opacity:1;" d="M 187.359375 126.683594 C 170.402344 126.683594 156.527344 140.558594 156.527344 157.519531 C 156.527344 174.476562 170.402344 188.351562 187.359375 188.351562 C 191.214844 188.351562 194.296875 187.582031 197.378906 186.808594 C 201.234375 185.269531 204.316406 183.726562 207.402344 181.414062 C 214.339844 176.019531 218.191406 167.539062 218.191406 157.519531 C 218.964844 140.558594 205.089844 126.683594 187.359375 126.683594 Z M 187.359375 126.683594 "/></g></svg>